<?xml version="1.0" standalone="no"?>
<!DOCTYPE svg PUBLIC "-//W3C//DTD SVG 20010904//EN"
 "http://www.w3.org/TR/2001/REC-SVG-20010904/DTD/svg10.dtd">
<svg version="1.0" xmlns="http://www.w3.org/2000/svg"
 width="500.000000pt" height="500.000000pt" viewBox="0 0 500.000000 500.000000"
 preserveAspectRatio="xMidYMid meet">
<metadata>
Created by potrace 1.11, written by Peter Selinger 2001-2013
</metadata>
<g transform="translate(0.000000,500.000000) scale(0.100000,-0.100000)"
fill="#000000" stroke="none">
<path d="M2335 4973 c-36 -9 -99 -41 -120 -60 -67 -59 -63 -58 -84 -39 -50 45
-158 23 -222 -45 -20 -21 -47 -63 -59 -93 l-23 -54 -32 13 c-58 25 -114 -27
-123 -113 -4 -43 -7 -48 -26 -45 -30 6 -87 -35 -112 -81 -15 -27 -22 -54 -21
-87 2 -45 0 -49 -21 -49 -82 0 -134 -112 -86 -185 16 -24 15 -26 -19 -64 -21
-23 -39 -56 -44 -78 -11 -59 -7 -130 9 -155 14 -21 13 -25 -13 -61 -32 -44
-50 -117 -43 -167 7 -42 38 -96 61 -105 27 -10 -26 -34 -54 -24 -12 4 -33 6
-47 3 -19 -3 -26 0 -26 11 0 31 -47 65 -88 65 -46 0 -118 -35 -145 -72 -23
-31 -25 -86 -4 -127 15 -31 15 -31 -11 -27 -35 6 -63 -15 -57 -42 3 -18 1 -20
-19 -12 -55 21 -142 -5 -166 -50 -14 -27 -16 -81 -3 -105 10 -19 7 -20 -36
-21 -82 -2 -146 -68 -158 -161 -5 -44 2 -83 33 -190 5 -17 2 -21 -13 -19 -55
9 -99 -53 -91 -128 5 -44 50 -150 68 -161 15 -9 12 -25 -5 -25 -29 0 -64 -23
-80 -55 -36 -66 10 -152 108 -201 44 -23 47 -27 31 -38 -23 -18 -12 -71 22
-102 71 -66 141 -69 289 -11 81 32 91 34 102 20 7 -9 33 -18 60 -20 40 -4 55
0 86 21 l37 25 0 -22 c0 -25 23 -105 40 -139 20 -39 70 -77 120 -92 52 -16
123 -14 144 3 10 8 26 6 61 -10 57 -25 161 -31 174 -10 5 7 14 10 20 7 13 -8
150 -177 207 -256 133 -182 190 -352 210 -622 8 -106 -16 -209 -78 -336 -44
-89 -108 -162 -277 -312 -77 -68 -141 -141 -141 -161 0 -4 17 -3 38 3 90 26
197 45 260 47 82 3 94 -7 97 -77 1 -26 3 -50 4 -54 2 -13 40 -9 73 8 22 11 43
14 72 10 73 -12 109 -15 209 -19 97 -4 99 -4 108 20 10 27 4 27 179 8 163 -19
201 -21 207 -12 3 6 -1 15 -10 22 -10 7 -17 18 -17 25 0 13 19 12 115 -7 57
-11 163 -9 175 3 8 8 -13 19 -73 38 -47 14 -108 42 -137 61 -50 34 -70 53
-175 174 -112 128 -174 267 -190 421 -5 56 -7 508 -1 535 2 11 7 42 11 69 7
54 41 191 50 206 3 4 56 42 119 84 63 42 118 80 121 86 4 6 21 16 39 24 18 8
43 28 56 46 23 32 24 33 39 13 46 -57 118 -71 170 -34 l28 20 24 -25 c74 -79
178 -63 224 34 17 36 22 41 43 35 57 -14 98 -6 134 26 28 25 33 37 38 88 l5
58 26 -56 c28 -59 55 -77 85 -54 15 10 26 7 72 -16 69 -37 120 -38 160 -4 l30
25 27 -22 c33 -26 110 -34 144 -16 14 7 33 27 43 45 17 29 18 35 4 66 -8 19
-21 39 -30 44 -13 7 -10 12 18 27 50 27 79 86 74 147 -4 33 -13 58 -28 74 -13
14 -22 26 -19 28 2 1 20 10 39 19 137 63 181 207 92 296 l-21 21 37 27 c95 71
123 175 74 269 -24 47 -51 74 -109 105 l-42 23 20 36 c39 73 8 202 -59 250
-33 23 -113 51 -149 51 -17 0 -30 15 -55 63 -18 34 -65 96 -104 137 -44 47
-71 84 -72 100 -1 15 -20 41 -52 71 l-51 47 25 26 c49 48 29 120 -42 154 -27
13 -38 26 -45 52 -19 73 -69 110 -148 110 -19 0 -35 11 -53 35 -48 62 -109 81
-193 59 -42 -11 -59 -12 -69 -3 -23 19 -143 23 -191 6 l-41 -14 -42 43 c-31
32 -40 47 -33 56 11 14 7 62 -8 89 -13 25 -12 27 12 31 36 5 40 39 14 96 -19
41 -22 58 -15 82 13 46 -13 68 -72 63 -43 -4 -46 -3 -51 26 -13 65 -73 109
-172 126 -22 4 -58 18 -81 31 -63 37 -97 45 -129 28 -24 -12 -30 -12 -56 7
-29 20 -97 32 -134 22z m250 -2830 c-2 -57 9 -95 35 -118 19 -17 19 -18 -1
-46 -11 -16 -23 -29 -27 -29 -16 0 -35 49 -52 129 l-17 86 31 11 c17 7 31 12
32 13 1 0 0 -20 -1 -46z m-189 -165 c-6 -153 -18 -225 -56 -332 -25 -73 -45
-96 -81 -96 -43 0 -70 14 -120 61 -25 24 -92 84 -150 134 -134 116 -179 158
-179 168 0 5 14 -1 30 -13 37 -26 59 -31 83 -18 14 7 22 5 30 -6 7 -8 24 -18
39 -21 23 -6 29 -3 39 19 12 26 12 26 33 7 46 -43 103 -44 125 -2 6 11 11 24
10 28 -5 27 2 31 30 17 70 -35 117 37 76 116 -15 28 -14 30 4 30 22 0 51 35
51 63 0 15 3 16 21 7 20 -11 20 -17 15 -162z m414 -106 c0 -15 -45 -52 -63
-52 -7 0 4 43 16 58 15 19 47 15 47 -6z"/>
</g>
</svg>
